<svg width="75" height="123" viewBox="0 0 75 123" fill="none" xmlns="http://www.w3.org/2000/svg">
<mask id="path-1-inside-1" fill="white">
<path fill-rule="evenodd" clip-rule="evenodd" d="M74.4903 64.5105L37.2452 0L0 64.5105H13.9049L0 88.5944H10.9252L0 107.517H24.3431V123H50.1473V107.517H74.4903L63.5651 88.5944H74.4903L60.5854 64.5105H74.4903Z"/>
</mask>
<path fill-rule="evenodd" clip-rule="evenodd" d="M74.4903 64.5105L37.2452 0L0 64.5105H13.9049L0 88.5944H10.9252L0 107.517H24.3431V123H50.1473V107.517H74.4903L63.5651 88.5944H74.4903L60.5854 64.5105H74.4903Z" fill="#475725"/>
<path d="M37.2452 0L38.1112 -0.5L37.2452 -2L36.3791 -0.5L37.2452 0ZM74.4903 64.5105V65.5105H76.2224L75.3563 64.0105L74.4903 64.5105ZM0 64.5105L-0.866025 64.0105L-1.73205 65.5105H0V64.5105ZM13.9049 64.5105L14.7709 65.0105L15.6369 63.5105H13.9049V64.5105ZM0 88.5944L-0.866025 88.0944L-1.73205 89.5944H0V88.5944ZM10.9252 88.5944L11.7913 89.0944L12.6573 87.5944H10.9252V88.5944ZM0 107.517L-0.866025 107.017L-1.73205 108.517H0V107.517ZM24.3431 107.517H25.3431V106.517H24.3431V107.517ZM24.3431 123H23.3431V124H24.3431V123ZM50.1473 123V124H51.1473V123H50.1473ZM50.1473 107.517V106.517H49.1473V107.517H50.1473ZM74.4903 107.517V108.517H76.2224L75.3563 107.017L74.4903 107.517ZM63.5651 88.5944V87.5944H61.833L62.699 89.0944L63.5651 88.5944ZM74.4903 88.5944V89.5944H76.2224L75.3563 88.0944L74.4903 88.5944ZM60.5854 64.5105V63.5105H58.8534L59.7194 65.0105L60.5854 64.5105ZM36.3791 0.5L73.6243 65.0105L75.3563 64.0105L38.1112 -0.5L36.3791 0.5ZM0.866025 65.0105L38.1112 0.5L36.3791 -0.5L-0.866025 64.0105L0.866025 65.0105ZM13.9049 63.5105H0V65.5105H13.9049V63.5105ZM0.866025 89.0944L14.7709 65.0105L13.0388 64.0105L-0.866025 88.0944L0.866025 89.0944ZM10.9252 87.5944H0V89.5944H10.9252V87.5944ZM0.866025 108.017L11.7913 89.0944L10.0592 88.0944L-0.866025 107.017L0.866025 108.017ZM24.3431 106.517H0V108.517H24.3431V106.517ZM25.3431 123V107.517H23.3431V123H25.3431ZM50.1473 122H24.3431V124H50.1473V122ZM49.1473 107.517V123H51.1473V107.517H49.1473ZM74.4903 106.517H50.1473V108.517H74.4903V106.517ZM62.699 89.0944L73.6243 108.017L75.3563 107.017L64.4311 88.0944L62.699 89.0944ZM74.4903 87.5944H63.5651V89.5944H74.4903V87.5944ZM59.7194 65.0105L73.6243 89.0944L75.3563 88.0944L61.4515 64.0105L59.7194 65.0105ZM74.4903 63.5105H60.5854V65.5105H74.4903V63.5105Z" fill="black" mask="url(#path-1-inside-1)"/>
</svg>
